PathFileType	3	(X/Y/Z)	F:\ViconData\AntennenMessung\Messung1\Session1\ID01.trc
DataRate	CameraRate	NumFrames	NumMarkers	Units	OrigDataRate	OrigDataStartFrame	OrigNumFrames
120.0	120.0	5	70	mm	120.0	120	957	
Frame#	Time	Ashort			Along			Atop			A4			Bshort			Blong			Btop			B4			Cshort			Clong			Ctop			C4			Dshort			Dlong			Dtop			D4			Eshort			Elong			Etop			E4			Fshort			Flong			Ftop			F4			Gshort			Glong			Gtop			G4			Hshort			Hlong			Htop			H4			I1			I2			I3			I4			I5			WandAshort			WandAlong			WandAtop			WandA4			WandA15			WandBshort			WandB4			WandB5			WandBtop			WandBlong			WandCshort			WandClong			WandCtop			WandC4			WandC5			Acenter			Aantenna			Bcenter			Bantenna			Ccenter			Cantenna			Dcenter			Dantenna			Ecenter			Eantenna			Fcenter			Fantenna			Gcenter			Gantenna			Hcenter			Hantenna			Icenter			Iantenna			
		X1	Y1	Z1	X2	Y2	Z2	X3	Y3	Z3	X4	Y4	Z4	X5	Y5	Z5	X6	Y6	Z6	X7	Y7	Z7	X8	Y8	Z8	X9	Y9	Z9	X10	Y10	Z10	X11	Y11	Z11	X12	Y12	Z12	X13	Y13	Z13	X14	Y14	Z14	X15	Y15	Z15	X16	Y16	Z16	X17	Y17	Z17	X18	Y18	Z18	X19	Y19	Z19	X20	Y20	Z20	X21	Y21	Z21	X22	Y22	Z22	X23	Y23	Z23	X24	Y24	Z24	X25	Y25	Z25	X26	Y26	Z26	X27	Y27	Z27	X28	Y28	Z28	X29	Y29	Z29	X30	Y30	Z30	X31	Y31	Z31	X32	Y32	Z32	X33	Y33	Z33	X34	Y34	Z34	X35	Y35	Z35	X36	Y36	Z36	X37	Y37	Z37	X38	Y38	Z38	X39	Y39	Z39	X40	Y40	Z40	X41	Y41	Z41	X42	Y42	Z42	X43	Y43	Z43	X44	Y44	Z44	X45	Y45	Z45	X46	Y46	Z46	X47	Y47	Z47	X48	Y48	Z48	X49	Y49	Z49	X50	Y50	Z50	X51	Y51	Z51	X52	Y52	Z52	X53	Y53	Z53	X54	Y54	Z54	X55	Y55	Z55	X56	Y56	Z56	X57	Y57	Z57	X58	Y58	Z58	X59	Y59	Z59	X60	Y60	Z60	X61	Y61	Z61	X62	Y62	Z62	X63	Y63	Z63	X64	Y64	Z64	X65	Y65	Z65	X66	Y66	Z66	X67	Y67	Z67	X68	Y68	Z68	X69	Y69	Z69	X70	Y70	Z70	
120	0.99166667	-1038.2139	214.30438	-1644.1311	-1109.149	203.21249	-1599.731	-1063.7854	172.75264	-1625.3102	-1054.1804	262.05963	-1634.9375	-1353.1051	235.25244	1004.0505	-1281.3228	227.01707	1052.4406	-1323.1321	194.20468	1020.7756	-1284.5273	287.91705	1052.8103	814.24164	187.41226	1209.345	892.30969	178.3596	1179.2949	844.27039	145.58578	1198.111	860.59064	292.33224	1167.2378	1115.8463	209.80151	-1401.7118	1056.3241	194.17859	-1460.2163	1095.0952	162.30432	-1423.8729	1069.9333	238.68484	-1425.9109	-1204.553	1686.0024	-1563.1567	-1129.0891	1688.1942	-1606.0203	-1173.0757	1724.4163	-1581.9956	-1133.5317	1581.1233	-1603.5287	-1239.6693	1699.2842	1119.2511	-1309.3295	1698.8411	1071.7451	-1270.3062	1736.1884	1096.6405	-1244.7841	1593.9508	1106.0135	988.86957	1664.2452	1162.2714	957.4541	1700.4355	1183.6768	922.01312	1662.3463	1214.802	939.84863	1659.433	1159.9655	999.25793	1668.5593	-1579.4691	1058.9865	1670.1687	-1518.6396	1025.1145	1707.9984	-1551.1259	1059.3473	1672.179	-1585.5305	-544.94482	141.44295	-348.92529	-539.26849	147.30807	-432.43619	-573.66986	143.29074	-386.86469	-495.16272	142.21834	-383.51654	-541.56537	107.21835	-389.50385																																														-1069.1758	209.46297	-1624.7511	-1074.8411	248.04483	-1624.1636	-1321.7905	231.65984	1025.16	-1320.4043	270.37085	1029.6917	847.9906	183.49876	1196.3542	851.79517	222.27116	1194.5579	1088.819	202.70761	-1428.2769	1082.8672	241.02382	-1432.4534	-1171.8408	1686.9525	-1581.7372	-1170.556	1647.9746	-1581.4684	-1270.9445	1699.0851	1097.9225	-1271.6149	1660.1141	1099.2692	952.87909	1705.7058	1186.7938	972.89417	1733.8223	1168.632	1026.6312	1669.2969	-1551.5912	1028.1583	1630.3296	-1552.0596	-542.51312	143.95549	-384.70023	-503.61572	144.78539	-381.99805
121	1	-1038.2202	214.33806	-1644.1797	-1109.254	203.3551	-1599.5895	-1063.6927	172.75661	-1625.3398	-1054.1299	262.09216	-1634.9435	-1352.9624	235.21147	1004.0463	-1281.3551	227.04361	1052.4138	-1323.098	194.17494	1020.8695	-1284.4956	287.94348	1052.7567	814.11188	187.52965	1209.3555	892.33826	178.39632	1179.2957	844.47296	145.36578	1198.1573	860.59644	292.3501	1167.1357	1115.855	209.79771	-1401.7168	1056.3263	194.18866	-1460.2479	1095.0164	162.20065	-1423.9098	1069.9276	238.67561	-1425.8866	-1204.5564	1686.0067	-1563.1536	-1129.0826	1688.1847	-1606.0192	-1173.0729	1724.41	-1581.9927	-1133.5121	1581.1124	-1603.4916	-1239.6099	1699.2032	1119.2177	-1309.347	1698.8451	1071.7606	-1270.3158	1736.2054	1096.6478	-1244.6021	1594.0525	1106.4103	988.87531	1664.2693	1162.2794	957.4519	1700.3718	1183.6567	921.8429	1662.2949	1214.7188	939.80109	1659.3892	1159.946	999.25983	1668.5504	-1579.4645	1058.9827	1670.1665	-1518.6407	1025.1155	1708.001	-1551.1389	1059.3447	1672.1703	-1585.5371	-544.94977	141.43329	-348.88556	-539.28882	147.29176	-432.45248	-573.65265	143.24953	-386.86279	-495.05667	141.92389	-383.02188	-541.57874	107.14039	-389.62637																																														-1069.059	209.56987	-1624.8209	-1074.6841	248.15826	-1624.2771	-1321.7162	231.64738	1025.1516	-1320.2883	270.36923	1029.5767	848.20062	183.54961	1196.2562	851.98535	222.31752	1194.3263	1088.766	202.6947	-1428.3518	1082.8514	241.01372	-1432.5552	-1171.8441	1686.9507	-1581.7325	-1170.5654	1647.9725	-1581.4618	-1270.9639	1699.0422	1097.8807	-1271.6437	1660.0695	1099.1737	952.78259	1705.7365	1186.8331	972.83215	1733.8873	1168.7628	1026.6261	1669.2908	-1551.5935	1028.1467	1630.3231	-1552.0513	-542.52325	143.94443	-384.70529	-503.62628	144.81273	-382.00949
122	1.0083333	-1038.1582	214.33449	-1644.2941	-1109.1689	203.19301	-1599.6722	-1063.578	173.24146	-1625.585	-1054.1102	262.09195	-1634.946	-1352.9194	235.11137	1004.0386	-1281.3447	226.96504	1052.4327	-1323.1578	194.18614	1020.8095	-1284.5039	287.97079	1052.7345	814.159	187.61301	1209.3464	892.38068	178.38263	1179.3235	844.48761	145.33495	1198.1792	860.48401	292.42596	1167.1622	1115.8551	209.79933	-1401.7166	1056.3105	194.21283	-1460.2366	1095.0649	162.24463	-1423.8423	1069.9238	238.6532	-1425.9119	-1204.5723	1686.0004	-1563.1292	-1129.1172	1688.3168	-1606.5266	-1173.0785	1724.4127	-1582.0072	-1133.5544	1581.1404	-1603.5386	-1239.6543	1699.2664	1119.2388	-1309.3593	1698.8832	1071.7639	-1270.3057	1736.1768	1096.6406	-1244.5997	1593.9185	1106.4125	988.88153	1664.2468	1162.2845	957.50897	1700.3453	1183.7158	921.8244	1662.3361	1214.7079	939.79926	1659.4108	1159.9567	999.26196	1668.5541	-1579.4592	1058.9833	1670.1647	-1518.641	1025.124	1708.017	-1551.1287	1059.3544	1672.1964	-1585.5338	-544.94586	141.46068	-348.9205	-539.29742	147.30182	-432.45358	-573.63861	143.26669	-386.85025	-495.06503	141.89752	-383.00134	-541.58948	107.26852	-389.54605																																														-1068.8904	209.51263	-1624.9823	-1074.5413	248.09573	-1624.3414	-1321.7932	231.56871	1025.0841	-1320.3799	270.29077	1029.512	848.26355	183.58856	1196.2562	852.08984	222.35147	1194.3079	1088.8284	202.72476	-1428.2782	1082.9243	241.0459	-1432.4774	-1171.885	1687.0038	-1581.9288	-1170.6415	1648.0237	-1581.8474	-1270.9675	1699.0941	1097.9117	-1271.6632	1660.1232	1099.2477	952.80719	1705.7554	1186.9277	972.89893	1733.9119	1168.9128	1026.6333	1669.2922	-1551.585	1028.152	1630.3245	-1552.0443	-542.52655	143.96245	-384.69778	-503.62927	144.83229	-382.00677
123	1.0166667	-1038.2106	214.37569	-1644.1888	-1109.2531	203.3755	-1599.6133	-1063.6766	172.73312	-1625.3586	-1054.1212	262.0495	-1634.9147	-1353.0315	235.28157	1004.0716	-1281.328	227.03513	1052.4415	-1323.0576	194.21742	1020.8552	-1284.5159	287.94196	1052.7852	814.19275	187.30432	1209.3273	892.42352	178.4438	1179.2544	844.48718	145.38472	1198.1704	860.48059	292.42303	1167.1467	1115.8584	209.80519	-1401.7153	1056.3396	194.17972	-1460.2223	1095.0441	162.2211	-1423.8188	1069.9348	238.6515	-1425.8988	-1204.5603	1686.0079	-1563.1302	-1129.0757	1688.1719	-1605.9861	-1173.0685	1724.4185	-1582.0037	-1133.5277	1581.1251	-1603.5386	-1239.6364	1699.2303	1119.2207	-1309.3552	1698.8485	1071.7527	-1270.2842	1736.1654	1096.6368	-1244.6783	1593.7244	1106.4486	988.87946	1664.2604	1162.2797	957.48932	1700.3209	1183.7229	921.86359	1662.3252	1214.7498	939.84045	1659.355	1159.952	999.25824	1668.5636	-1579.4764	1058.985	1670.165	-1518.6438	1025.1261	1708.006	-1551.1392	1059.3485	1672.1813	-1585.551	-544.93402	141.40866	-348.9068	-539.28192	147.2953	-432.46024	-573.69153	143.66898	-386.73697	-495.07861	141.9026	-383.0076	-541.6037	107.13699	-389.58289																																														-1069.0562	209.59955	-1624.8347	-1074.687	248.18704	-1624.2864	-1321.6898	231.67705	1025.214	-1320.2764	270.3902	1029.7188	848.0813	183.46605	1196.3	851.74146	222.24716	1194.3953	1088.8173	202.70605	-1428.2966	1082.9238	241.02451	-1432.5349	-1171.8292	1686.9462	-1581.713	-1170.5402	1647.9686	-1581.4105	-1270.9441	1699.0587	1097.9048	-1271.6373	1660.0876	1099.2363	952.76215	1705.7515	1186.952	972.8092	1733.9266	1168.9167	1026.6306	1669.2975	-1551.5972	1028.1453	1630.3296	-1552.0583	-542.5188	143.92409	-384.6102	-503.61057	144.24251	-381.95575
124	1.025	-1038.2078	214.3233	-1644.1577	-1109.2411	203.42488	-1599.6241	-1063.6761	172.75829	-1625.3374	-1054.1436	262.07471	-1634.9319	-1353.0038	235.26096	1004.0382	-1281.4006	227.29858	1052.323	-1323.1631	194.14963	1020.8778	-1284.4769	287.97839	1052.7433	814.13501	187.52271	1209.3823	892.42761	178.4807	1179.2321	844.57336	145.37752	1198.2584	860.53876	292.5463	1167.1001	1115.8531	209.77368	-1401.7122	1056.3271	194.20398	-1460.2373	1095.0242	162.22096	-1423.8389	1069.926	238.65286	-1425.916	-1204.5807	1686.0117	-1563.1078	-1129.1173	1688.1755	-1605.9979	-1173.0638	1724.4067	-1582.0187	-1133.5038	1581.1111	-1603.4963	-1239.6256	1699.2135	1119.2183	-1309.3412	1698.8412	1071.7496	-1270.2915	1736.1624	1096.6333	-1244.6128	1593.9523	1106.4688	988.89221	1664.2799	1162.2976	957.44421	1700.4038	1183.6627	921.87744	1662.38	1214.8121	939.79352	1659.3801	1159.9238	999.26929	1668.5822	-1579.4763	1058.9877	1670.1725	-1518.6489	1025.125	1708.0101	-1551.1278	1059.3438	1672.1901	-1585.5558	-544.97614	141.44255	-348.90256	-539.26624	147.31189	-432.45444	-573.74689	143.48979	-386.78244	-495.08667	141.90182	-383.00143	-541.5683	107.25539	-389.59225																																														-1069.0175	209.59628	-1624.8419	-1074.6132	248.18924	-1624.3229	-1321.8074	231.79189	1025.0751	-1320.4125	270.52689	1029.394	848.21576	183.58672	1196.2578	851.91174	222.35808	1194.2278	1088.8164	202.7019	-1428.2942	1082.9396	241.02516	-1432.5123	-1171.8232	1686.9509	-1581.7256	-1170.5322	1647.9735	-1581.4207	-1270.9491	1699.0461	1097.8903	-1271.6396	1660.0746	1099.2101	952.75104	1705.7946	1186.8512	972.76385	1733.9368	1168.7263	1026.637	1669.3109	-1551.6003	1028.1594	1630.3435	-1552.0763	-542.53534	143.95142	-384.617	-503.63315	144.52679	-381.918
